# xmcd
#
# Track frame offsets:
#	150
#	17002
#	40371
#	62394
#	88782
#	120766
#	160763
#	196365
#	231177
#	253006
#	286950
#
# Disc length: 4359
#
# Revision: 1
# Processed by: cddbd v1.5.1PL0 Copyright (c) Steve Scherf et al.
# Submitted via: ExactAudioCopy v0.90b4
# Normalized: r0:DSETVAR1,TDELIM( - )
#
DISCID=8811050b
DTITLE=Various Artist - Damned Good Music (JK Side)
DYEAR=2002
DGENRE=Blues
TTITLE0=Frank Zappa - Sexual Harassment
TTITLE1=Chicken Shack - Poor Boy
TTITLE2=Ansley Lister - As The Crow Flies
TTITLE3=Walter Throut and The FRRE Radicals - Walkin' In The Rain
TTITLE4=Doyle Bramhall II - Smokestack
TTITLE5=Popa Chubby - Sweet Goddess Of Lobe And Beer
TTITLE6=Rory Gallagher - I Wonder Who
TTITLE7=Stevie Ray Vaughan - Tin Pan Alley
TTITLE8=Kenny Wayne Shepherd - Shotgun Blues
TTITLE9=Bernhard Allison - Rock Me Baby
TTITLE10=Frank Zappa - Sharleena
EXTD=
EXTT0=
EXTT1=
EXTT2=
EXTT3=
EXTT4=
EXTT5=
EXTT6=
EXTT7=
EXTT8=
EXTT9=
EXTT10=
PLAYORDER=
